<?xml version="1.0" encoding="iso-8859-1"?>
<!DOCTYPE svg PUBLIC "-//W3C//DTD SVG 1.1//EN" "http://www.w3.org/Graphics/SVG/1.1/DTD/svg11.dtd">
<svg version="1.1" id="logo-cps" xmlns="http://www.w3.org/2000/svg" xmlns:xlink="http://www.w3.org/1999/xlink" x="0px" y="0px"
	 width="286.898px" height="40.275px" viewBox="0 0 286.898 40.275" style="enable-background:new 0 0 286.898 40.275;"
	 xml:space="preserve">
<path style="fill-rule:evenodd;clip-rule:evenodd;fill:#B01116;" d="M134.674,30.702l2.365-8.794l2.292,8.794H134.674z
	 M145.491,37.992c-0.342-0.514-0.776-1.762-1.307-3.746l-5.554-20.945h-0.218l-5.511,20.378c-0.52,1.948-0.962,3.235-1.319,3.851
	c-0.353,0.624-0.81,1.004-1.361,1.146v0.693h5.123v-0.693c-0.802-0.104-1.306-0.252-1.508-0.457
	c-0.349-0.334-0.523-0.862-0.523-1.581c0-0.54,0.104-1.221,0.318-2.051l0.647-2.487h5.442l0.818,3.182
	c0.213,0.829,0.325,1.3,0.341,1.414c0.047,0.239,0.07,0.47,0.07,0.695c0,0.379-0.086,0.668-0.252,0.867
	c-0.241,0.277-0.664,0.419-1.261,0.419h-0.306v0.693h7.454v-0.693C146.115,38.61,145.75,38.385,145.491,37.992z"/>
<path style="fill-rule:evenodd;clip-rule:evenodd;fill:#B01116;" d="M176.743,34.959c-0.395,1.034-0.868,1.786-1.411,2.263
	c-0.547,0.474-1.23,0.713-2.048,0.713H172c-0.725,0-1.183-0.051-1.373-0.167c-0.268-0.173-0.442-0.443-0.536-0.804
	c-0.089-0.354-0.135-1.19-0.135-2.493V18.199c0-1.279,0.043-2.07,0.124-2.372c0.116-0.431,0.271-0.726,0.465-0.906
	c0.276-0.265,0.632-0.393,1.083-0.393h0.671v-0.701h-8.219v0.701h0.512c0.431,0,0.776,0.122,1.028,0.366
	c0.256,0.245,0.422,0.528,0.508,0.855c0.081,0.327,0.124,1.145,0.124,2.449v16.797c0,1.286-0.043,2.077-0.124,2.373
	c-0.109,0.431-0.26,0.732-0.458,0.906c-0.271,0.263-0.632,0.399-1.078,0.399h-0.512v0.693h13.683l0.578-8.967h-0.465
	C177.519,32.412,177.143,33.93,176.743,34.959"/>
<path style="fill-rule:evenodd;clip-rule:evenodd;fill:#B01116;" d="M56.998,20.744h0.43c0.175-1.883,0.59-3.336,1.249-4.352
	c0.47-0.733,1.226-1.093,2.261-1.093h1.117v19.697c0,1.285-0.042,2.075-0.127,2.371c-0.113,0.432-0.268,0.733-0.466,0.907
	c-0.271,0.264-0.632,0.399-1.078,0.399h-0.512v0.693h8.067v-0.693h-0.512c-0.438,0-0.783-0.123-1.04-0.374
	c-0.251-0.244-0.422-0.526-0.511-0.854c-0.086-0.328-0.128-1.145-0.128-2.45V15.3h1.148c0.717,0,1.221,0.108,1.509,0.341
	c0.514,0.412,0.923,0.964,1.217,1.666c0.295,0.693,0.563,1.838,0.807,3.437h0.408v-6.917H56.998V20.744z"/>
<path style="fill-rule:evenodd;clip-rule:evenodd;fill:#B01116;" d="M157.921,14.528c0.624,0,1.106,0.142,1.446,0.431
	c0.218,0.187,0.401,0.528,0.544,1.016c0.143,0.489,0.217,1.305,0.217,2.45v10.414c0,2.713-0.148,4.616-0.438,5.708
	c-0.291,1.093-0.73,1.948-1.319,2.572c-0.586,0.623-1.295,0.932-2.129,0.932c-0.73,0-1.331-0.245-1.807-0.733
	c-0.478-0.495-0.819-1.106-1.029-1.845c-0.209-0.746-0.313-2.256-0.313-4.545V18.425c0-1.453,0.05-2.366,0.143-2.733
	c0.093-0.359,0.252-0.648,0.477-0.854c0.225-0.205,0.636-0.309,1.233-0.309h0.396v-0.7h-7.951v0.7
	c0.651-0.013,1.097,0.083,1.338,0.303c0.245,0.212,0.415,0.495,0.512,0.855c0.101,0.36,0.147,1.273,0.147,2.739v12.503
	c0,2.128,0.206,3.812,0.613,5.072c0.411,1.254,1.113,2.281,2.102,3.085c0.73,0.592,1.761,0.887,3.091,0.887
	c1.599,0,2.863-0.558,3.786-1.678c0.923-1.119,1.505-2.34,1.745-3.67c0.237-1.332,0.357-3.498,0.357-6.5l0-9.7
	c0-1.042,0.051-1.762,0.148-2.167c0.127-0.579,0.337-1.009,0.624-1.299c0.287-0.289,0.647-0.431,1.078-0.431h0.318v-0.7h-5.329
	V14.528z"/>
<path style="fill-rule:evenodd;clip-rule:evenodd;fill:#B01116;" d="M101.096,33.743c-0.372,1.768-0.891,3.054-1.555,3.857
	c-0.524,0.623-1.175,0.938-1.954,0.938c-1.161,0-2.064-0.727-2.707-2.186c-0.924-2.083-1.385-5.304-1.385-9.662
	c0-3.664,0.299-6.48,0.896-8.434c0.737-2.386,1.807-3.582,3.219-3.582c0.764,0,1.439,0.348,2.024,1.036
	c0.589,0.694,1.071,1.876,1.451,3.555c0.38,1.671,0.57,4.197,0.57,7.579C101.655,29.681,101.469,31.982,101.096,33.743
	 M97.47,13.474c-2.273-0.154-4.185,1.035-5.744,3.568c-1.555,2.525-2.335,5.689-2.335,9.483c0,3.375,0.602,6.293,1.796,8.755
	c1.516,3.118,3.662,4.674,6.431,4.674c2.765,0,4.906-1.633,6.422-4.898c1.144-2.462,1.714-5.31,1.714-8.55
	c0-3.792-0.767-6.949-2.3-9.477C101.919,14.509,99.925,13.319,97.47,13.474L97.47,13.474z"/>
<path style="fill-rule:evenodd;clip-rule:evenodd;fill:#B01116;" d="M20.734,2.292c-0.267,0.443-0.582,0.665-0.942,0.665
	c-0.286,0-0.949-0.347-1.996-1.021c-1.809-1.167-3.525-1.745-5.148-1.745c-2.205,0-4.288,0.897-6.249,2.709
	c-1.96,1.804-3.514,4.349-4.666,7.627C0.575,13.805,0,17.268,0,20.922c0,3.462,0.523,6.731,1.559,9.807
	c1.041,3.065,2.519,5.42,4.433,7.058c1.914,1.64,4.107,2.459,6.569,2.459c1.878,0,3.513-0.501,4.921-1.513
	c1.402-1.003,2.752-2.634,4.049-4.87v-3.307c-1.344,2.584-2.618,4.397-3.828,5.448c-1.21,1.062-2.542,1.582-3.997,1.582
	c-1.774,0-3.217-0.715-4.328-2.161c-1.117-1.437-1.932-3.567-2.455-6.384c-0.524-2.815-0.786-5.938-0.786-9.362
	c0-3.482,0.361-6.644,1.077-9.488c0.552-2.228,1.437-4.021,2.641-5.401c1.204-1.379,2.525-2.063,3.967-2.063
	c1.728,0,3.276,0.926,4.637,2.767c1.368,1.852,2.298,4.503,2.799,7.965h0.663V0.19h-0.663C21.176,1.145,21.002,1.849,20.734,2.292"
	/>
<path style="fill-rule:evenodd;clip-rule:evenodd;fill:#B01116;" d="M36.015,36.296c-0.869,1.105-2.021,1.657-3.46,1.657h-0.919
	c-0.442,0-0.76-0.096-0.954-0.302c-0.198-0.199-0.334-0.456-0.403-0.772c-0.074-0.314-0.109-1.17-0.109-2.577v-7.194
	c0.734,0,1.297,0.161,1.679,0.477c0.388,0.322,0.725,0.944,1.021,1.876c0.29,0.934,0.481,2.122,0.573,3.581h0.431V19.671h-0.431
	c-0.123,1.981-0.403,3.485-0.841,4.5c-0.442,1.016-1.148,1.523-2.126,1.523H30.17V15.3h1.59c1.168,0,1.963,0.109,2.386,0.341
	c0.729,0.373,1.291,0.965,1.687,1.768c0.399,0.803,0.705,2.128,0.927,3.974h0.43v-7.555H24.294v0.701h0.512
	c0.501,0,0.892,0.174,1.183,0.527c0.201,0.237,0.345,0.579,0.419,1.016c0.039,0.264,0.058,0.97,0.058,2.128v16.797
	c0,1.286-0.042,2.077-0.129,2.373c-0.105,0.431-0.256,0.732-0.453,0.906c-0.271,0.263-0.632,0.399-1.078,0.399h-0.512v0.693h13.319
	l0.69-8.118h-0.419C37.504,33.513,36.885,35.196,36.015,36.296"/>
<path style="fill-rule:evenodd;clip-rule:evenodd;fill:#B01116;" d="M50.521,14.528c0.857-0.025,1.466,0.328,1.83,1.055
	c0.264,0.541,0.396,1.574,0.396,3.104v10.98l-7.602-15.84H39.68v0.7c0.47,0.025,0.83,0.142,1.079,0.355
	c0.252,0.218,0.539,0.662,0.864,1.337l0.331,0.681v18.026c0,1.356-0.167,2.313-0.501,2.879c-0.334,0.567-0.923,0.855-1.773,0.868
	v0.694h5.465v-0.694H44.78c-0.519,0-0.985-0.257-1.388-0.777c-0.407-0.515-0.609-1.505-0.609-2.97V18.688l10.418,21.267h0.388
	V18.688c0-1.202,0.062-2.058,0.186-2.552c0.124-0.495,0.298-0.855,0.523-1.074c0.225-0.218,0.659-0.398,1.311-0.533v-0.7h-5.089
	V14.528z"/>
<path style="fill-rule:evenodd;clip-rule:evenodd;fill:#B01116;" d="M82.104,24.177c-0.299,0.837-0.711,1.415-1.234,1.737
	c-0.524,0.321-1.311,0.474-2.362,0.474H77.86V15.204h1.214c1.222,0,2.106,0.462,2.653,1.393c0.551,0.934,0.826,2.366,0.826,4.315
	C82.553,22.256,82.402,23.342,82.104,24.177 M87.607,38.031c-0.201-0.276-0.548-0.972-1.032-2.089l-3.704-8.646
	c0.939-0.385,1.668-0.971,2.191-1.749c0.819-1.233,1.23-2.79,1.23-4.674c0-1.542-0.275-2.892-0.819-4.036
	c-0.546-1.152-1.252-1.942-2.113-2.366c-0.865-0.425-2.226-0.643-4.092-0.643h-7.159v0.701c0.705,0,1.186,0.102,1.443,0.32
	c0.26,0.213,0.439,0.495,0.543,0.855c0.101,0.359,0.151,1.228,0.151,2.61v16.573c0,1.381-0.05,2.243-0.151,2.598
	c-0.104,0.354-0.283,0.637-0.535,0.855c-0.256,0.226-0.737,0.334-1.45,0.334v0.694h7.888v-0.694c-0.706,0-1.186-0.108-1.446-0.322
	c-0.256-0.212-0.435-0.501-0.54-0.86c-0.101-0.353-0.151-1.222-0.151-2.604v-7.162h1.012l4.965,11.643h4.852v-0.694
	C88.278,38.635,87.921,38.423,87.607,38.031z"/>
<path style="fill-rule:evenodd;clip-rule:evenodd;fill:#B01116;" d="M125.882,17.826c-0.75,1.37-1.815,2.054-3.2,2.054
	c-0.198,0-0.477-0.018-0.855-0.058V3.266h0.698c1.49,0,2.607,0.655,3.357,1.977c0.751,1.32,1.129,3.395,1.129,6.239
	C127.011,14.346,126.633,16.467,125.882,17.826 M123.363,1.058h-10.077v1.051c1.059,0,1.781,0.154,2.165,0.482
	c0.39,0.318,0.657,0.742,0.814,1.282c0.152,0.54,0.227,1.842,0.227,3.915v24.858c0,2.074-0.075,3.366-0.227,3.896
	c-0.157,0.53-0.424,0.955-0.802,1.283c-0.385,0.337-1.106,0.501-2.177,0.501v1.041h11.746v-1.041c-1.047,0-1.762-0.164-2.158-0.483
	c-0.39-0.316-0.663-0.751-0.814-1.291c-0.157-0.531-0.233-1.832-0.233-3.906V22.021c2.624,0,4.491-0.221,5.59-0.675
	c1.635-0.646,2.921-1.851,3.852-3.616c0.931-1.775,1.396-3.895,1.396-6.383c0-2.942-0.721-5.391-2.165-7.348
	C129.059,2.041,126.679,1.058,123.363,1.058z"/>
<path style="fill-rule:evenodd;clip-rule:evenodd;fill:#B01116;" d="M268.149,35.01c-0.652,1.208-1.431,2.044-2.331,2.495
	c-0.554,0.288-1.524,0.43-2.909,0.43h-2.932l9.056-24.106h-12.171l-0.418,7.475h0.418c0.175-1.227,0.415-2.244,0.723-3.046
	c0.309-0.804,0.693-1.447,1.159-1.929c0.466-0.489,0.966-0.812,1.497-0.972c0.279-0.09,0.861-0.135,1.749-0.135h2.285l-9.068,24.146
	h14.109l0.625-9.232h-0.443C269.25,32.175,268.801,33.794,268.149,35.01"/>
<path style="fill-rule:evenodd;clip-rule:evenodd;fill:#B01116;" d="M274.987,30.702l2.366-8.794l2.292,8.794H274.987z
	 M285.804,37.992c-0.341-0.514-0.776-1.762-1.307-3.746l-5.554-20.945h-0.217l-5.512,20.378c-0.519,1.948-0.962,3.235-1.318,3.851
	c-0.353,0.624-0.811,1.004-1.362,1.146v0.693h5.123v-0.693c-0.802-0.104-1.306-0.252-1.508-0.457
	c-0.349-0.334-0.523-0.862-0.523-1.581c0-0.54,0.104-1.221,0.317-2.051l0.648-2.487h5.442l0.818,3.182
	c0.213,0.829,0.326,1.3,0.341,1.414c0.047,0.239,0.07,0.47,0.07,0.695c0,0.379-0.085,0.668-0.252,0.867
	c-0.24,0.277-0.663,0.419-1.26,0.419h-0.307v0.693h7.455v-0.693C286.428,38.61,286.064,38.385,285.804,37.992z"/>
<path style="fill-rule:evenodd;clip-rule:evenodd;fill:#B01116;" d="M249.102,14.528c0.624,0,1.105,0.142,1.447,0.431
	c0.216,0.187,0.399,0.528,0.542,1.016c0.144,0.489,0.218,1.305,0.218,2.45v10.414c0,2.713-0.148,4.616-0.439,5.708
	c-0.291,1.093-0.729,1.948-1.318,2.572c-0.586,0.623-1.296,0.932-2.13,0.932c-0.729,0-1.33-0.245-1.807-0.733
	c-0.477-0.495-0.818-1.106-1.028-1.845c-0.209-0.746-0.314-2.256-0.314-4.545V18.425c0-1.453,0.051-2.366,0.143-2.733
	c0.094-0.359,0.253-0.648,0.478-0.854c0.225-0.205,0.635-0.309,1.234-0.309h0.395v-0.7h-7.951v0.7
	c0.651-0.013,1.097,0.083,1.338,0.303c0.244,0.212,0.415,0.495,0.512,0.855c0.101,0.36,0.147,1.273,0.147,2.739v12.503
	c0,2.128,0.206,3.812,0.613,5.072c0.411,1.254,1.113,2.281,2.102,3.085c0.729,0.592,1.761,0.887,3.091,0.887
	c1.598,0,2.862-0.558,3.786-1.678c0.924-1.119,1.504-2.34,1.745-3.67c0.236-1.332,0.356-3.498,0.356-6.5v-9.7
	c0-1.042,0.051-1.762,0.148-2.167c0.128-0.579,0.337-1.009,0.624-1.299c0.288-0.289,0.648-0.431,1.079-0.431h0.317v-0.7h-5.328
	V14.528z"/>
<path style="fill-rule:evenodd;clip-rule:evenodd;fill:#B01116;" d="M211.658,15.58c-1.932-1.582-3.165-2.682-3.7-3.309
	c-0.727-0.857-1.257-1.734-1.582-2.621c-0.239-0.656-0.361-1.419-0.361-2.258c0-1.34,0.337-2.527,1.017-3.549
	c0.676-1.032,1.595-1.542,2.752-1.542c1.502,0,2.891,0.974,4.184,2.922c1.29,1.957,2.099,4.531,2.425,7.734h0.704L216.905,0.19
	h-0.512c-0.145,1.147-0.303,1.871-0.477,2.17c-0.168,0.299-0.401,0.452-0.698,0.452c-0.302,0-0.843-0.307-1.611-0.916
	c-0.762-0.616-1.415-1.03-1.949-1.263c-0.704-0.299-1.431-0.443-2.182-0.443c-2.055,0-3.758,1.07-5.115,3.212
	c-1.349,2.149-2.029,4.754-2.029,7.8c0,1.794,0.25,3.432,0.745,4.919c0.493,1.484,1.197,2.835,2.123,4.04
	c0.92,1.206,2.431,2.661,4.532,4.378c1.5,1.225,2.541,2.218,3.136,2.979c0.593,0.762,1.029,1.572,1.32,2.41
	c0.291,0.849,0.437,1.727,0.437,2.633c0,1.523-0.379,2.863-1.135,4.012c-0.757,1.147-1.768,1.726-3.042,1.726
	c-1.648,0-3.182-1.071-4.609-3.211c-1.43-2.14-2.39-5.236-2.89-9.306h-0.63v14.465h0.63c0.202-0.772,0.47-1.351,0.803-1.727
	c0.325-0.376,0.639-0.56,0.936-0.56c0.349,0,0.797,0.183,1.344,0.56c0.976,0.676,1.792,1.138,2.437,1.39
	c0.646,0.239,1.339,0.366,2.066,0.366c2.315,0,4.23-1.157,5.737-3.463c1.5-2.304,2.255-5.061,2.255-8.263
	c0-2.527-0.464-4.764-1.401-6.721C216.184,19.871,214.362,17.788,211.658,15.58"/>
<path style="fill-rule:evenodd;clip-rule:evenodd;fill:#B01116;" d="M183.806,30.702l2.366-8.794l2.292,8.794H183.806z
	 M194.623,37.992c-0.341-0.514-0.775-1.762-1.307-3.746l-5.554-20.945h-0.217l-5.511,20.378c-0.52,1.948-0.962,3.235-1.319,3.851
	c-0.353,0.624-0.811,1.004-1.361,1.146v0.693h5.123v-0.693c-0.803-0.104-1.307-0.252-1.508-0.457
	c-0.35-0.334-0.524-0.862-0.524-1.581c0-0.54,0.105-1.221,0.318-2.051l0.648-2.487h5.441l0.818,3.182
	c0.214,0.829,0.326,1.3,0.342,1.414c0.046,0.239,0.07,0.47,0.07,0.695c0,0.379-0.086,0.668-0.252,0.867
	c-0.241,0.277-0.664,0.419-1.261,0.419h-0.307v0.693h7.455v-0.693C195.247,38.61,194.883,38.385,194.623,37.992z"/>
<path style="fill-rule:evenodd;clip-rule:evenodd;fill:#B01116;" d="M232.538,33.743c-0.373,1.768-0.892,3.054-1.556,3.857
	c-0.523,0.623-1.175,0.938-1.955,0.938c-1.159,0-2.064-0.727-2.707-2.186c-0.923-2.083-1.384-5.304-1.384-9.662
	c0-3.664,0.298-6.48,0.896-8.434c0.736-2.386,1.807-3.582,3.218-3.582c0.765,0,1.439,0.348,2.026,1.036
	c0.589,0.694,1.07,1.876,1.449,3.555c0.38,1.671,0.57,4.197,0.57,7.579C233.095,29.681,232.91,31.982,232.538,33.743
	 M228.911,13.474c-2.272-0.154-4.184,1.035-5.744,3.568c-1.556,2.525-2.334,5.689-2.334,9.483c0,3.375,0.601,6.293,1.795,8.755
	c1.516,3.118,3.661,4.674,6.431,4.674c2.764,0,4.905-1.633,6.423-4.898c1.143-2.462,1.713-5.31,1.713-8.55
	c0-3.792-0.769-6.949-2.299-9.477C233.359,14.509,231.366,13.319,228.911,13.474L228.911,13.474z"/>
</svg>
