<?xml version="1.0" encoding="iso-8859-1"?>
<!-- Generator: Adobe Illustrator 17.0.0, SVG Export Plug-In . SVG Version: 6.00 Build 0)  -->
<!DOCTYPE svg PUBLIC "-//W3C//DTD SVG 1.1//EN" "http://www.w3.org/Graphics/SVG/1.1/DTD/svg11.dtd">
<svg version="1.1" id="Camada_1" xmlns="http://www.w3.org/2000/svg" xmlns:xlink="http://www.w3.org/1999/xlink" x="0px" y="0px"
   width="155.003px" height="32.131px" viewBox="0 0 155.003 32.131" style="enable-background:new 0 0 155.003 32.131;"
   xml:space="preserve">
<path style="fill:#ED1C24;" d="M26.789,0.194c-3.672-0.195-6.429-0.157-9.067,0.093l-4.459,4.101l-1.199,1.125
  c3.224-0.253,6.573-0.205,9.118,0.026c1.392,0.125,2.879,0.446,4.202,0.88l1.204-1.258l4.483-4.506
  C29.825,0.396,28.458,0.285,26.789,0.194"/>
<path style="fill:#FFFFFF;" d="M26,2.816c-1.254,1.266-4.357,2.147-6.8,2.023C16.919,4.715,16,3.736,17.044,2.61
  c1.059-1.14,3.848-2.086,6.345-2.11C26.057,0.491,27.292,1.531,26,2.816"/>
<polygon style="fill:#FFD400;" points="18.641,0.5 18.654,0.78 19.244,0.822 18.581,1.057 18.395,1.363 17.978,1.22 17.309,1.365
  17.691,1.061 17.456,0.836 18.109,0.777 "/>
<polygon style="fill:#FFD400;" points="15.447,3.87 15.454,4.22 16.137,4.302 15.357,4.543 15.139,4.92 14.66,4.719 13.869,4.858
  14.336,4.508 14.059,4.225 14.816,4.189 "/>
<polygon style="fill:#FFD400;" points="28.934,0.748 28.94,1.078 29.708,1.174 28.83,1.362 28.577,1.71 28.047,1.509 27.166,1.603
  27.671,1.298 27.38,1.027 28.218,1.031 "/>
<polygon style="fill:#FFD400;" points="25.461,4.396 25.448,4.759 26.239,4.935 25.319,5.079 25.027,5.438 24.484,5.168
  23.564,5.222 24.117,4.912 23.823,4.58 24.698,4.654 "/>
<path style="fill:#034EA2;" d="M19.309,4.225l0.231,0.174c0,0-0.002,0.143,0.046,0.167c0.06,0.024,0.058,0.076,0.237-0.013
  c0.176-0.075,0.273-0.162,0.331-0.196c0.065-0.046,0.017-0.019,0.199-0.077c0.177-0.061,0.277-0.076,0.407-0.168
  c0.134-0.102,0.08,0,0.198-0.147C21.1,3.81,21.16,3.718,21.315,3.69c0.16-0.05,0.468-0.108,0.64-0.123
  c0.164-0.009,0.558,0.082,0.676,0.002c0.102-0.089,0.28-0.296,0.431-0.339c0.155-0.058,0.434-0.196,0.573-0.315
  c0.138-0.104,0.324-0.248,0.41-0.294c0.091-0.038,0.376-0.172,0.376-0.172s0.575-0.287,0.742-0.303
  c0.183-0.001,0.26-0.126,0.288-0.182c0.012-0.052-0.122-0.11-0.202-0.13c-0.078-0.007-0.18-0.023-0.22-0.081
  c-0.059-0.065-0.341-0.139-0.341-0.139s-0.198,0.129-0.376-0.008c-0.189-0.151-0.156-0.247-0.273-0.254
  c-0.105-0.015-0.075-0.002-0.222-0.006c-0.155-0.004-0.23,0.002-0.337,0.033c-0.101,0.029,0.012,0.211-0.277,0.099
  c-0.3-0.125-0.29-0.266-0.346-0.331c-0.071-0.052-0.075-0.009-0.214-0.04c-0.122-0.029-0.164-0.047-0.233-0.004
  c-0.063,0.033-0.327,0.218-0.371,0.199c-0.057-0.031-0.321-0.176-0.212-0.237c0.126-0.065,0.229-0.237,0.172-0.22
  c-0.042,0.006-0.205,0.065-0.292,0.075c-0.085,0.016-0.248,0.013-0.279,0.023c-0.031,0.017-0.282,0.062-0.303,0.11
  c-0.034,0.031,0.143,0.035-0.025,0.14c-0.162,0.107-0.306,0.201-0.448,0.102C20.513,1.2,20.5,1.166,20.404,1.18
  c-0.091,0.028-0.267,0.12-0.361,0.177c-0.096,0.06-0.16,0.093-0.16,0.093s0-0.028-0.071,0.108c-0.065,0.13-0.12,0.203-0.228,0.245
  c-0.101,0.033-0.143,0.061-0.37,0.119c-0.233,0.042-0.31,0.126-0.426,0.179c-0.113,0.05-0.173,0.107-0.142,0.193
  c0.051,0.084,0.034,0.149,0.114,0.111c0.081-0.046,0.088-0.107,0.144-0.084c0.07,0.023,0.084,0.195,0.17,0.164
  c0.089-0.055,0.059-0.019,0.256-0.139c0.203-0.122,0.119-0.1,0.272-0.056c0.154,0.023,0.133,0.088,0.188,0.173
  c0.058,0.082,0.137,0.126,0.221,0.146c0.07,0.007,0,0.087,0.158,0.224l0.163,0.146c0,0-0.061,0.109-0.121,0.171
  c-0.047,0.071-0.235,0.169-0.181,0.246c0.042,0.074,0.153,0.127,0.212,0.208C20.304,3.686,20.3,3.852,20.3,3.852
  s-0.311,0.182-0.37,0.186C19.883,4.053,19.371,4.2,19.309,4.225"/>
<path style="fill:#034EA2;" d="M23.387,0.878c-0.086,0.06-0.441,0.162-0.392,0.243c0.05,0.092,0.151,0.237,0.241,0.216
  c0.093-0.027,0.17,0.042,0.22-0.105C23.505,1.079,23.387,0.878,23.387,0.878"/>
<path style="fill:#FFFFFF;" d="M66.248,14.844l-0.558-0.239c-0.26-0.126-0.537-0.197-0.719-0.22
  c-0.527-0.064-0.845,0.184-1.088,0.675l-1.172-0.143c0.53-1.658,1.367-2.405,2.566-2.258c0.229,0.029,0.556,0.133,0.916,0.283
  l0.273,0.113l0.709,0.293c0.203,0.068,0.377,0.126,0.596,0.154c0.463,0.055,0.89-0.22,1.086-0.768l1.174,0.144
  c-0.554,1.629-1.314,2.503-2.628,2.341c-0.244-0.031-0.519-0.127-0.784-0.213L66.248,14.844z"/>
<g>
  <path d="M41.305,16.353c-1.873-0.754-2.949-2.096-4.456-4.453c-1.256-1.971-2.722-5.512-4.634-7.24
    c-0.981-0.887-2.044-1.468-3.294-1.877l-1.248,1.263c0.064,0.02,0.128,0.042,0.191,0.066c2.766,1.017,3.75,1.91,5.366,4.534
    c1.537,2.487,3.257,5.876,5.98,7.827c2.725,1.954,5.753,1.283,7.301,1.099c1.202-0.142,3.466-0.654,4.409-0.875l0.489-0.463
    l0.692-0.654c-0.882,0.226-2.28,0.56-3.657,0.795C46.388,16.718,43.38,17.186,41.305,16.353 M28.635,26.194
    c-2.58-3.009-2.846-4.026-4.31-6.1c-1.462-2.074-3.049-4.433-8.295-5.042c-5.884-0.685-12.468-0.204-13.992-0.082H2.005L0,16.852
    c8.435-0.459,16.883-0.794,20.054,1.523c3.173,2.319,3.57,4.729,6.527,8.512c2.96,3.781,4.791,5.244,8.024,5.244l2.108-1.994
    C33.263,31.134,31.114,29.08,28.635,26.194 M33.741,26.154c-1.465-1.078-2.809-2.552-4.17-4.546
    c-1.363-1.992-2.623-4.036-4.636-6.435c-2.013-2.399-4.94-3.091-7.28-3.416c-2.287-0.318-4.734-0.617-11.977-0.249l-1.773,1.669
    L3.787,13.29c5.227-0.297,9.218-0.436,13.3,0.095c4.248,0.549,5.854,1.563,8.152,4.962c2.298,3.394,3.783,5.733,5.716,7.788
    c1.927,2.047,4.564,3.144,7.664,2.199l1.836-1.737c-0.395,0.124-0.794,0.222-1.182,0.27C37.42,27.089,35.204,27.231,33.741,26.154
     M45.341,14.715c-4.454,0.031-6.01-3.721-6.985-5.43c-0.976-1.707-1.86-3.75-3.539-6.252c-0.054-0.084-0.113-0.164-0.17-0.242
    c-0.017-0.024-0.039-0.048-0.057-0.073c-0.041-0.051-0.082-0.104-0.121-0.153c-0.025-0.029-0.046-0.055-0.071-0.084
    c-0.038-0.044-0.076-0.084-0.114-0.128c-0.027-0.029-0.051-0.054-0.077-0.081c-0.038-0.04-0.076-0.078-0.117-0.117
    c-0.025-0.028-0.052-0.051-0.08-0.078l-0.12-0.11c-0.027-0.023-0.052-0.045-0.08-0.069c-0.043-0.035-0.087-0.071-0.129-0.105
    c-0.028-0.021-0.051-0.041-0.078-0.061c-0.048-0.036-0.099-0.073-0.15-0.107c-0.02-0.014-0.042-0.031-0.064-0.048
    c-0.069-0.045-0.14-0.09-0.211-0.134c-0.004-0.002-0.007-0.004-0.009-0.006c-0.077-0.046-0.155-0.089-0.233-0.131
    c-0.017-0.009-0.033-0.016-0.046-0.024c-0.064-0.032-0.128-0.065-0.191-0.097c-0.024-0.01-0.05-0.021-0.075-0.032
    c-0.057-0.026-0.111-0.051-0.17-0.077c-0.027-0.01-0.056-0.02-0.084-0.034c-0.054-0.02-0.111-0.044-0.165-0.064
    c-0.032-0.011-0.061-0.022-0.091-0.031c-0.057-0.022-0.115-0.042-0.172-0.06c-0.029-0.012-0.058-0.02-0.089-0.027
    c-0.06-0.021-0.12-0.039-0.183-0.055c-0.027-0.01-0.056-0.018-0.084-0.026c-0.069-0.018-0.136-0.034-0.205-0.053
    c-0.022-0.005-0.045-0.01-0.069-0.016c-0.087-0.022-0.175-0.042-0.268-0.06c-0.001,0-0.005-0.002-0.009-0.002l-1.16,1.172
    c1.711,0.374,3.026,0.774,4.496,3.257c1.625,2.745,3.13,5.5,3.803,6.599c0.669,1.098,2.043,3.152,4.138,3.68
    c2.094,0.53,3.832,0.385,5.876,0.111c1.367-0.183,3.464-0.539,4.932-0.848l1.249-1.183C54.369,13.436,49.794,14.684,45.341,14.715
     M35.289,18.725c-2.302-2.667-4.267-5.774-5.961-7.7c-1.709-1.943-4.166-3.426-7.504-4.067c-3.205-0.614-8.736-0.574-10.929-0.353
    L10.421,7.05L9.705,7.719c2.817-0.143,6.485-0.072,9.091,0.176c2.742,0.258,5.443,0.645,7.867,2.826
    c2.426,2.181,3.929,4.466,5.898,7.212c1.967,2.746,4.086,4.501,6.571,4.774c1.844,0.204,4.28-0.095,5.844-0.388l0.627-0.591
    l1.061-1.003c-1.657,0.442-3.59,0.701-5.183,0.717C39.654,21.457,37.593,21.395,35.289,18.725 M34.025,22.097
    c-2.365-2.563-5.576-7.925-7.463-9.648c-2.409-2.202-4.602-3.071-9.359-3.514c-3.3-0.304-6.751-0.268-8.558-0.216l-0.512,0.48
    l-1.054,0.992C12.478,9.95,14.9,9.875,19.08,10.516c4.513,0.694,6.425,2.705,8.254,5.187c1.832,2.477,3.415,5.104,5.124,6.993
    c1.709,1.891,2.624,2.968,6.614,2.939c2.041-0.014,2.824-0.402,2.828-0.404l1.549-1.467c-0.033-0.006-1.234,0.3-2.44,0.408
    C39.925,24.267,36.388,24.659,34.025,22.097 M40.705,18.618c-2.482-0.447-4.623-2.9-6.225-5.55
    c-1.601-2.661-3.963-6.425-7.918-7.897l-1.21,1.237c1.34,0.451,2.487,1.057,3.305,1.84c1.616,1.558,2.704,2.857,4.718,5.727
    c2.013,2.867,3.751,5.723,7.197,6.017c2.908,0.249,5.922-0.257,7.635-0.729l1.281-1.211l0.107-0.101
    c-0.411,0.103-0.993,0.229-1.784,0.374C45.553,18.731,43.185,19.068,40.705,18.618"/>
  <path d="M65.881,24.549h0.56h1.369l-1.56-4.246l-1.713,4.246H65.881z M65.881,15.728h0.56h2.12l5.621,14.453h-4.278l-0.997-2.695
    h-2.466h-0.56h-2.594l-1.111,2.695h-4.313l6.316-14.453H65.881z"/>
  <path d="M80.509,15.516c0.095,0,0.187,0.004,0.281,0.004L80.509,15.516z M80.231,15.516c0.091,0.004,0.184,0,0.278,0H80.231z
     M80.509,26.96c2.127,0,3.692-1.622,3.692-3.971c0-2.384-1.567-4.003-3.681-4.003c-2.146,0.011-3.691,1.619-3.691,4.003
    C76.829,25.34,78.374,26.96,80.509,26.96 M80.79,30.445c-0.089,0.004-0.18,0.004-0.27,0.004h0.27V30.445z M86.105,17.55
    c1.491,1.428,2.261,3.269,2.261,5.439c0,2.124-0.768,3.978-2.261,5.375c-1.399,1.332-3.176,2.026-5.315,2.081l-0.27,0.004
    c-2.259,0-4.106-0.698-5.563-2.085c-1.49-1.397-2.263-3.272-2.263-5.375c0-2.17,0.775-4.011,2.263-5.439
    c1.398-1.312,3.153-1.975,5.274-2.03l0.278-0.004h0.281C82.922,15.575,84.707,16.238,86.105,17.55"/>
  <path d="M97.348,15.728h0.123h0.065H97.348z M97.348,21.487c0.955-0.028,1.788-0.112,1.788-1.295c0-1.061-0.744-1.263-1.59-1.306
    H96.12v2.601H97.348z M103.279,20.159c0,3.441-2.547,4.397-5.372,4.579l-0.279,0.019h-0.056l-0.224,0.007
    c-0.053,0.003-0.112,0.003-0.162,0.003H96.12v5.414h-4.033V15.728h5.261h0.188h0.371C100.717,15.855,103.279,16.698,103.279,20.159
    "/>
  <path d="M108.076,24.549h0.56h1.371l-1.563-4.246l-1.714,4.246H108.076z M108.076,15.728h0.56h2.12l5.621,14.453h-4.278
    l-0.998-2.695h-2.465h-0.56h-2.596l-1.109,2.695h-4.311l6.312-14.453H108.076z"/>
  <path d="M146.882,15.516c0.088,0.004,0.181,0,0.27,0H146.882z M147.152,26.96c2.135,0,3.691-1.622,3.691-3.971
    c0-2.374-1.557-3.992-3.684-4.003c-2.143,0-3.689,1.619-3.689,4.003C143.47,25.34,145.016,26.96,147.152,26.96 M146.882,30.449
    h0.27c-0.089,0-0.182,0-0.27-0.004V30.449z M147.444,30.445c-0.093,0.002-0.188,0.004-0.281,0.004h0.281V30.445z M152.728,17.55
    c1.474,1.426,2.275,3.267,2.275,5.439c0,2.128-0.797,3.978-2.277,5.375c-1.384,1.328-3.158,2.024-5.282,2.081l-0.281,0.004h-0.281
    c-2.139-0.059-3.886-0.755-5.292-2.085c-1.489-1.397-2.275-3.272-2.275-5.375c0-2.172,0.788-4.013,2.275-5.441
    c1.408-1.31,3.157-1.975,5.292-2.028l0.27-0.004C149.406,15.516,151.281,16.181,152.728,17.55"/>
  <path d="M52.706,27.182c1.35,0,1.795-0.403,1.795-0.953c0-0.816-1.068-1.049-1.664-1.255c-3.502-1.231-5.404-2.442-5.404-5.181
    c0-2.536,2.26-4.276,5.53-4.276c1.785,0,3.402,0.472,5.008,1.235v3.475c-1.444-0.731-3.158-1.551-4.831-1.551
    c-1.35,0-1.74,0.396-1.74,0.84c0,0.361,0.384,0.805,1.683,1.271c1.181,0.466,2.402,0.866,3.496,1.519
    c1.323,0.821,1.967,2.097,1.967,3.712c0,2.749-2.185,4.43-5.773,4.43c-1.887,0-3.489-0.515-5.098-1.486v-3.739
    C49.196,26.142,50.848,27.182,52.706,27.182"/>
  <path d="M122.079,30.449c-4.255,0-6.838-2.396-6.838-6.483v-8.238h4.043v8.093c0,2.104,1.002,3.161,2.816,3.161
    c1.803,0,2.783-1.053,2.783-3.161v-8.093h4.058v8.238C128.941,28.053,126.335,30.449,122.079,30.449"/>
  <polygon points="133.932,15.728 133.932,26.96 139.914,26.96 139.914,30.181 129.887,30.181 129.887,15.728  "/>
  <path d="M51.297,12.109c-1.042,0-1.913-0.327-2.537-0.916c-0.648-0.621-1.013-1.484-1.013-2.46c0-2,1.436-3.384,3.712-3.384
    c0.833,0,1.618,0.201,2.431,0.592v1.436c-0.873-0.441-1.655-0.661-2.343-0.661c-1.321,0-2.116,0.765-2.116,2.017
    c0,1.224,0.765,2.009,1.981,2.009c0.324,0,0.64-0.067,0.956-0.2V9.718H51.47V8.494h2.564v2.737
    C53.228,11.834,52.35,12.109,51.297,12.109"/>
  <path d="M55.869,6.286c0.659-0.624,1.492-0.928,2.525-0.928c1.033,0,1.875,0.304,2.535,0.928c0.671,0.641,1.023,1.472,1.023,2.447
    c0,0.977-0.352,1.81-1.023,2.44c-0.66,0.622-1.502,0.937-2.535,0.937c-1.033,0-1.866-0.315-2.525-0.937
    c-0.671-0.63-1.025-1.474-1.025-2.44C54.844,7.758,55.198,6.927,55.869,6.286 M58.394,10.732c1.08,0,1.866-0.822,1.866-1.999
    c0-1.175-0.786-2.006-1.866-2.006c-1.08,0-1.866,0.831-1.866,2.006C56.528,9.91,57.314,10.732,58.394,10.732"/>
  <polygon points="61.908,5.464 63.659,5.464 65.276,9.259 66.998,5.464 68.768,5.464 65.581,12.052 64.875,12.052   "/>
  <polygon points="69.216,5.464 73.588,5.464 73.588,6.668 70.85,6.668 70.85,7.997 73.464,7.997 73.464,9.211 70.85,9.211
    70.85,10.771 73.666,10.771 73.666,11.995 69.216,11.995  "/>
  <path d="M74.742,5.464h2.412c1.751,0,2.602,0.583,2.602,1.893c0,0.716-0.354,1.224-1.138,1.578
    c0.326,0.124,0.585,0.401,0.774,0.822l1.042,2.237h-1.846l-0.83-1.884c-0.259-0.583-0.547-0.783-1.187-0.783
    c-0.067,0-0.125,0.009-0.193,0.009v2.658h-1.636V5.464z M78.063,7.377c0-0.48-0.304-0.758-0.898-0.758h-0.786V8.14h0.786
    C77.776,8.14,78.063,7.893,78.063,7.377"/>
  <polygon points="82.567,11.995 80.951,11.995 80.951,5.464 82.389,5.464 85.886,9.355 85.886,5.464 87.506,5.464 87.506,11.995
    86.223,11.995 82.567,7.894  "/>
  <path d="M89.484,6.286c0.659-0.624,1.492-0.928,2.525-0.928c1.033,0,1.875,0.304,2.537,0.928c0.669,0.641,1.021,1.472,1.021,2.447
    c0,0.977-0.352,1.81-1.021,2.44c-0.662,0.622-1.504,0.937-2.537,0.937c-1.033,0-1.866-0.315-2.525-0.937
    c-0.669-0.63-1.023-1.474-1.023-2.44C88.461,7.758,88.815,6.927,89.484,6.286 M92.009,10.732c1.082,0,1.866-0.822,1.866-1.999
    c0-1.175-0.784-2.006-1.866-2.006c-1.082,0-1.866,0.831-1.866,2.006C90.143,9.91,90.927,10.732,92.009,10.732"/>
  <path d="M99.133,5.464h2.449c1.044,0,1.886,0.065,2.697,0.678c0.834,0.63,1.275,1.521,1.275,2.581c0,1.168-0.537,2.143-1.533,2.774
    c-0.738,0.47-1.501,0.497-2.439,0.497h-2.449V5.464z M100.771,10.675h1.214c1.12,0,1.885-0.814,1.885-1.952
    c0-1.137-0.765-1.94-1.885-1.94h-1.214V10.675z"/>
  <path d="M107.217,6.286c0.659-0.624,1.492-0.928,2.525-0.928c1.033,0,1.875,0.304,2.535,0.928c0.671,0.641,1.023,1.472,1.023,2.447
    c0,0.977-0.352,1.81-1.023,2.44c-0.66,0.622-1.502,0.937-2.535,0.937c-1.033,0-1.866-0.315-2.525-0.937
    c-0.669-0.63-1.025-1.474-1.025-2.44C106.192,7.758,106.548,6.927,107.217,6.286 M109.742,10.732c1.082,0,1.866-0.822,1.866-1.999
    c0-1.175-0.784-2.006-1.866-2.006c-1.082,0-1.866,0.831-1.866,2.006C107.876,9.91,108.66,10.732,109.742,10.732"/>
  <polygon points="116.868,5.464 121.24,5.464 121.24,6.668 118.502,6.668 118.502,7.997 121.114,7.997 121.114,9.211 118.502,9.211
    118.502,10.771 121.316,10.771 121.316,11.995 116.868,11.995   "/>
  <path d="M122.253,10.025c0.822,0.508,1.493,0.822,2.227,0.822c0.643,0,0.977-0.201,0.977-0.581c0-0.394-0.296-0.518-0.87-0.721
    c-1.646-0.573-2.449-1.116-2.449-2.302c0-1.092,0.966-1.885,2.467-1.885c0.718,0,1.475,0.172,2.219,0.534v1.34
    c-0.832-0.419-1.53-0.649-2.133-0.649c-0.631,0-0.957,0.19-0.957,0.527c0,0.267,0.288,0.504,0.88,0.724
    c0.585,0.222,1.139,0.403,1.627,0.698c0.575,0.356,0.862,0.91,0.862,1.637c0,1.185-0.938,1.94-2.583,1.94
    c-0.813,0-1.569-0.211-2.267-0.63V10.025z"/>
  <polygon points="129.654,6.679 127.493,6.679 127.493,5.463 133.541,5.463 133.541,6.679 131.378,6.679 131.378,11.994
    129.654,11.994  "/>
  <path d="M135.733,5.465h1.883l2.544,6.53h-1.731l-0.468-1.271h-2.813l-0.527,1.271h-1.738L135.733,5.465z M137.551,9.604
    l-0.92-2.487l-1.013,2.487H137.551z"/>
  <path d="M140.611,5.464h2.449c1.042,0,1.884,0.065,2.697,0.678c0.832,0.63,1.271,1.521,1.271,2.581
    c0,1.168-0.535,2.143-1.529,2.774c-0.736,0.47-1.503,0.497-2.439,0.497h-2.449V5.464z M142.247,10.675h1.214
    c1.12,0,1.885-0.814,1.885-1.952c0-1.137-0.765-1.94-1.885-1.94h-1.214V10.675z"/>
  <path d="M148.69,6.286c0.661-0.624,1.496-0.928,2.527-0.928c1.035,0,1.875,0.304,2.537,0.928c0.669,0.641,1.021,1.472,1.021,2.447
    c0,0.977-0.352,1.81-1.021,2.44c-0.662,0.622-1.502,0.937-2.537,0.937c-1.031,0-1.866-0.315-2.527-0.937
    c-0.667-0.63-1.021-1.474-1.021-2.44C147.669,7.758,148.023,6.927,148.69,6.286 M151.217,10.732c1.08,0,1.864-0.822,1.864-1.999
    c0-1.175-0.784-2.006-1.864-2.006c-1.08,0-1.866,0.831-1.866,2.006C149.351,9.91,150.137,10.732,151.217,10.732"/>
</g>
</svg>
