<?xml version="1.0" encoding="iso-8859-1"?>
<!-- Generator: Adobe Illustrator 17.0.0, SVG Export Plug-In . SVG Version: 6.00 Build 0)  -->
<!DOCTYPE svg PUBLIC "-//W3C//DTD SVG 1.1//EN" "http://www.w3.org/Graphics/SVG/1.1/DTD/svg11.dtd">
<svg version="1.1" id="Camada_1" xmlns="http://www.w3.org/2000/svg" xmlns:xlink="http://www.w3.org/1999/xlink" x="0px" y="0px"
	 width="190.732px" height="98.609px" viewBox="0 0 190.732 98.609" style="enable-background:new 0 0 190.732 98.609;"
	 xml:space="preserve">
<rect x="-0.118" y="65.019" style="fill:none;" width="191.417" height="22.535"/>
<path style="fill:#3A5461;" d="M10.152,33.035v23.336H0V0h36.596v8.943H10.152v15.148h24.17v8.943H10.152z"/>
<path style="fill:#3A5461;" d="M190.732,41.826c0,10-6.9,15.228-17.283,15.228c-10.303,0-17.193-5.682-17.193-15.607v-9.926
	c0-9.926,6.891-15.688,17.193-15.688c10.383,0,17.283,5.303,17.283,15.309v0.682h-8.865c0-5.684-3.111-8.031-8.418-8.031
	c-5.223,0-8.254,2.723-8.254,8.486v8.332c0,5.764,3.031,8.488,8.254,8.488c5.307,0,8.418-2.271,8.418-7.957h8.865V41.826z"/>
<path style="fill:#3A5461;" d="M67.385,56.371v-4.619l-4.166,2.271c-3.713,1.969-6.592,2.883-10.537,2.883
	c-7.117,0-11.893-4.623-11.893-11.367c0-8.334,6.516-12.201,14.779-12.201h11.896v-2.346c0-5.156-2.959-7.654-8.189-7.654
	c-5.453,0-8.637,2.273-8.637,6.967h-8.941v-0.523c0-9.02,7.127-14.096,17.506-14.096c10.912,0,17.201,5.451,17.201,14.998v25.687
	H67.385z M67.385,39.854H56.779c-5.533,0-6.822,2.578-6.822,5.23c0,2.803,1.742,4.471,4.775,4.471c2.498,0,4.621-0.758,6.898-1.971
	l5.754-3.105V39.854z"/>
<path style="fill:#3A5461;" d="M102.795,56.371c-9.246,0-15.23-4.619-15.23-13.713V24.246H81.5v-7.805h6.064V5.605h9.395v10.836
	h11.061v7.805H96.959v17.881c0,4.701,2.123,6.291,6.586,6.291h4.703v7.953H102.795z"/>
<path style="fill:#3A5461;" d="M148.273,43.795c0,8.107-6.973,13.26-17.506,13.26c-10.303,0-17.648-5.607-17.648-15.379v-9.473
	c0-10.08,7.346-16.369,17.648-16.369c10.385,0,17.578,5.99,17.578,16.523V39.4H121.83v1.971c0,5.684,3.787,8.184,9.012,8.184
	c5.16,0,8.643-1.818,8.643-6.139h8.789V43.795z M139.709,32.203c0-5.687-3.332-8.791-8.867-8.791c-5.602,0-9.012,3.104-9.012,8.867
	v0.98h17.879V32.203z"/>
</svg>

