<svg xmlns="http://www.w3.org/2000/svg" version="1.1" x="0" y="0" width="154.95" height="32.28" viewBox="0 0 154.95 32.28" xml:space="preserve"><defs><path d="M3.84 13.27c-0.01 0-0.04 0.02-0.05 0.02l-1.78 1.68 0.04 0.01c1.53-0.12 8.07-0.6 13.96 0.08 5.25 0.61 6.85 2.98 8.32 5.05 1.46 2.08 1.74 3.1 4.32 6.11 2.47 2.88 4.61 4.93 8.04 3.95 0.01 0 0.03-0.02 0.04-0.02l1.91-1.8c-0.01 0-0.01 0-0.02 0 0 0-0.01-0.01-0.02-0.01-3.09 0.93-5.68-0.16-7.61-2.21-1.93-2.05-3.41-4.38-5.71-7.78-2.3-3.4-3.92-4.42-8.17-4.97-1.98-0.25-3.94-0.35-6.04-0.35C8.85 13.01 6.51 13.12 3.84 13.27M7.13 10.18c-0.02 0-0.04 0.02-0.05 0.02l-1.4 1.32c0.01 0 0.02 0.02 0.03 0.02 7.22-0.37 9.65-0.07 11.93 0.25 2.34 0.33 5.25 1.01 7.27 3.41 2.01 2.4 3.29 4.44 4.65 6.44 1.36 1.99 2.71 3.46 4.17 4.54 1.46 1.08 3.69 0.96 5.54 0.73 0.37-0.05 0.76-0.14 1.14-0.26 0.01 0 0.04-0.03 0.05-0.03L41.9 25.23c0 0-0.03-0.01-0.05 0-0.17 0.07-0.98 0.37-2.78 0.38-3.99 0.03-4.89-1.04-6.6-2.93-1.7-1.89-3.28-4.51-5.11-6.99-1.83-2.48-3.75-4.5-8.26-5.19-2.4-0.37-4.22-0.5-6.36-0.5C11.15 10 9.4 10.07 7.13 10.18M9.76 7.7C9.74 7.71 9.72 7.72 9.7 7.72L8.65 8.72c0.01 0 0.02 0.02 0.03 0.02 1.81-0.05 5.25-0.09 8.53 0.22 4.76 0.44 6.94 1.31 9.35 3.51 1.89 1.72 5.11 7.09 7.47 9.65 2.36 2.56 5.91 2.18 6.99 2.08 1.11-0.1 2.35-0.38 2.38-0.4 0.02 0 0.05-0.02 0.06-0.02l1.53-1.45c-0.01 0-0.02 0-0.02 0-0.01 0-0.01-0.01-0.02-0.01-1.56 0.29-3.97 0.59-5.8 0.38-2.49-0.28-4.58-2.02-6.55-4.76-1.97-2.75-3.47-5.03-5.89-7.21-2.42-2.18-5.15-2.58-7.89-2.85C17.1 7.72 14.96 7.63 12.89 7.63 11.8 7.63 10.73 7.65 9.76 7.7M12.11 5.5c-0.01 0-0.01 0-0.05 0.02l-1.17 1.09c0.01 0.03 0.03 0.02 0.05 0.02 2.22-0.21 7.69-0.26 10.88 0.35 3.34 0.64 5.8 2.13 7.51 4.08 1.7 1.93 3.66 5.04 5.96 7.71 2.3 2.67 4.37 2.73 6.2 2.71 1.58-0.01 3.47-0.27 5.12-0.71 0.01 0 0.05-0.03 0.06-0.03l1.54-1.46c-0.01 0-0.02 0-0.03 0-0.01 0-0.02-0.01-0.03 0-1.72 0.47-4.69 0.96-7.57 0.71-3.45-0.29-5.18-3.13-7.19-6-2.01-2.87-3.1-4.17-4.72-5.73-0.82-0.78-1.95-1.38-3.29-1.84-1.31-0.45-2.84-0.75-4.24-0.88C19.73 5.39 18.06 5.32 16.37 5.32 14.92 5.32 13.45 5.37 12.11 5.5M27.72 4.04c-0.01 0-0.01 0-0.02 0-0.01 0-0.02 0-0.02 0l-1.11 1.13c0.01 0 0.02 0.03 0.03 0.03 3.94 1.48 6.26 5.22 7.86 7.87 1.6 2.65 3.77 5.13 6.25 5.58 2.48 0.45 4.84 0.11 7.1-0.3 0.76-0.14 1.32-0.27 1.73-0.37 0.01 0 0.05-0.02 0.06-0.03l1.33-1.25c-0.01 0-0.01 0-0.02 0-0.01 0-0.01 0-0.02 0-0.96 0.23-3.18 0.72-4.37 0.86-1.55 0.18-4.56 0.86-7.29-1.09-2.72-1.95-4.44-5.33-5.97-7.82-1.62-2.62-2.6-3.53-5.37-4.54-0.05-0.02-0.11-0.04-0.16-0.05H27.72zM29.93 1.82c-0.01 0-0.01 0-0.02 0-0.01 0-0.03 0-0.03 0l-0.95 0.96c0.01 0 0.02 0.03 0.04 0.04 1.24 0.41 2.26 0.97 3.23 1.85 1.91 1.73 3.38 5.27 4.64 7.24 1.51 2.36 2.61 3.72 4.48 4.47 2.08 0.84 5.08 0.36 7.14 0.02 1.36-0.23 2.73-0.56 3.62-0.79 0.01 0 0.03-0.02 0.04-0.02l1.02-0.96c-0.01 0-0.01 0-0.02 0-0.01 0-0.01 0-0.02 0-1.47 0.31-3.54 0.65-4.89 0.84-2.04 0.27-3.77 0.42-5.87-0.11-2.09-0.52-3.45-2.57-4.12-3.67-0.67-1.1-2.18-3.85-3.81-6.6-1.46-2.46-2.76-2.88-4.45-3.25H29.93z"/></defs><linearGradient gradientUnits="userSpaceOnUse" x1="-531.72" y1="444.82" x2="-530.72" y2="444.82" gradientTransform="matrix(18.5426 19.1933 19.1933 -18.5426 1341.0612 18461.3359)"><stop offset="0" stop-color="#FFFFFF"/><stop offset="0.03" stop-color="#FFFFFF"/><stop offset="0.13" stop-color="#EDEEEE"/><stop offset="0.33" stop-color="#C7C9CB"/><stop offset="0.48" stop-color="#A7A9AC"/><stop offset="0.92" stop-color="#FFFFFF"/><stop offset="1" stop-color="#FFFFFF"/></linearGradient><polygon points="28.44 -23.72 67.77 16.99 26.68 56.68 -12.65 15.97 " style="clip-path:url(#SVGID_2_);fill:url(#SVGID_3_)"/><defs><rect x="0" width="170.12" height="52.24"/></defs><path d="M26.79 0.19c-3.67-0.19-6.43-0.16-9.07 0.09l-4.46 4.1-1.2 1.13c3.22-0.25 6.57-0.2 9.12 0.03 1.39 0.13 2.88 0.45 4.2 0.88l1.2-1.26 4.48-4.51C29.83 0.4 28.46 0.28 26.79 0.19" fill="#{$fill-logo-white}"/><path d="M26 2.82c-1.25 1.27-4.36 2.15-6.8 2.02-2.28-0.12-3.2-1.1-2.16-2.23 1.06-1.14 3.85-2.09 6.35-2.11C26.06 0.49 27.29 1.53 26 2.82" fill="#{$fill-logo-dark}"/><g fill="#{$fill-logo-dark}"><polygon points="18.64 0.5 18.65 0.78 19.24 0.82 18.58 1.06 18.4 1.36 17.98 1.22 17.31 1.37 17.69 1.06 17.46 0.84 18.11 0.78 "/><polygon points="15.45 3.87 15.45 4.22 16.14 4.3 15.36 4.54 15.14 4.92 14.66 4.72 13.87 4.86 14.34 4.51 14.06 4.22 14.82 4.19 "/><polygon points="28.93 0.75 28.94 1.08 29.71 1.17 28.83 1.36 28.58 1.71 28.05 1.51 27.17 1.6 27.67 1.3 27.38 1.03 28.22 1.03 "/><polygon points="25.46 4.4 25.45 4.76 26.24 4.93 25.32 5.08 25.03 5.44 24.48 5.17 23.56 5.22 24.12 4.91 23.82 4.58 24.7 4.65 "/></g><g fill="#{$fill-logo-white}"><path d="M19.31 4.22l0.23 0.17c0 0 0 0.14 0.05 0.17 0.06 0.02 0.06 0.08 0.24-0.01 0.18-0.07 0.27-0.16 0.33-0.2 0.07-0.05 0.02-0.02 0.2-0.08 0.18-0.06 0.28-0.08 0.41-0.17 0.13-0.1 0.08 0 0.2-0.15C21.1 3.81 21.16 3.72 21.32 3.69c0.16-0.05 0.47-0.11 0.64-0.12 0.16-0.01 0.56 0.08 0.68 0 0.1-0.09 0.28-0.3 0.43-0.34 0.16-0.06 0.43-0.2 0.57-0.31 0.14-0.1 0.32-0.25 0.41-0.29 0.09-0.04 0.38-0.17 0.38-0.17s0.57-0.29 0.74-0.3c0.18 0 0.26-0.13 0.29-0.18 0.01-0.05-0.12-0.11-0.2-0.13-0.08-0.01-0.18-0.02-0.22-0.08-0.06-0.06-0.34-0.14-0.34-0.14s-0.2 0.13-0.38-0.01c-0.19-0.15-0.16-0.25-0.27-0.25-0.1-0.01-0.07 0-0.22-0.01-0.15 0-0.23 0-0.34 0.03-0.1 0.03 0.01 0.21-0.28 0.1-0.3-0.12-0.29-0.27-0.35-0.33-0.07-0.05-0.07-0.01-0.21-0.04-0.12-0.03-0.16-0.05-0.23 0-0.06 0.03-0.33 0.22-0.37 0.2-0.06-0.03-0.32-0.18-0.21-0.24 0.13-0.06 0.23-0.24 0.17-0.22-0.04 0.01-0.2 0.07-0.29 0.08-0.08 0.02-0.25 0.01-0.28 0.02-0.03 0.02-0.28 0.06-0.3 0.11-0.03 0.03 0.14 0.04-0.02 0.14-0.16 0.11-0.31 0.2-0.45 0.1C20.51 1.2 20.5 1.17 20.4 1.18c-0.09 0.03-0.27 0.12-0.36 0.18-0.1 0.06-0.16 0.09-0.16 0.09s0-0.03-0.07 0.11c-0.06 0.13-0.12 0.2-0.23 0.25-0.1 0.03-0.14 0.06-0.37 0.12-0.23 0.04-0.31 0.13-0.43 0.18-0.11 0.05-0.17 0.11-0.14 0.19 0.05 0.08 0.03 0.15 0.11 0.11 0.08-0.05 0.09-0.11 0.14-0.08 0.07 0.02 0.08 0.2 0.17 0.16 0.09-0.05 0.06-0.02 0.26-0.14 0.2-0.12 0.12-0.1 0.27-0.06 0.15 0.02 0.13 0.09 0.19 0.17 0.06 0.08 0.14 0.13 0.22 0.15 0.07 0.01 0 0.09 0.16 0.22l0.16 0.15c0 0-0.06 0.11-0.12 0.17-0.05 0.07-0.23 0.17-0.18 0.25 0.04 0.07 0.15 0.13 0.21 0.21C20.31 3.69 20.3 3.85 20.3 3.85s-0.31 0.18-0.37 0.19C19.88 4.05 19.37 4.2 19.31 4.22"/><path d="M23.39 0.88c-0.09 0.06-0.44 0.16-0.39 0.24 0.05 0.09 0.15 0.24 0.24 0.22 0.09-0.03 0.17 0.04 0.22-0.1C23.51 1.08 23.39 0.88 23.39 0.88" clip-path="url(#SVGID_5_)"/></g><g fill="#{$fill-logo-white}"><path d="M41.31 16.35c-1.87-0.75-2.95-2.1-4.46-4.45-1.26-1.97-2.72-5.51-4.63-7.24-0.98-0.89-2.04-1.47-3.29-1.88l-1.25 1.26c0.06 0.02 0.13 0.04 0.19 0.07 2.77 1.02 3.75 1.91 5.37 4.53 1.54 2.49 3.26 5.88 5.98 7.83 2.73 1.95 5.75 1.28 7.3 1.1 1.2-0.14 3.47-0.65 4.41-0.87l0.49-0.46 0.69-0.65c-0.88 0.23-2.28 0.56-3.66 0.8C46.39 16.72 43.38 17.19 41.31 16.35M28.64 26.19c-2.58-3.01-2.85-4.03-4.31-6.1-1.46-2.07-3.05-4.43-8.29-5.04-5.88-0.68-12.47-0.2-13.99-0.08H2.01L0 16.85c8.44-0.46 16.88-0.79 20.05 1.52 3.17 2.32 3.57 4.73 6.53 8.51 2.96 3.78 4.79 5.24 8.02 5.24l2.11-1.99C33.26 31.13 31.11 29.08 28.64 26.19M33.74 26.15c-1.46-1.08-2.81-2.55-4.17-4.55-1.36-1.99-2.62-4.04-4.64-6.43-2.01-2.4-4.94-3.09-7.28-3.42-2.29-0.32-4.73-0.62-11.98-0.25l-1.77 1.67L3.79 13.29c5.23-0.3 9.22-0.44 13.3 0.1 4.25 0.55 5.85 1.56 8.15 4.96 2.3 3.39 3.78 5.73 5.72 7.79 1.93 2.05 4.56 3.14 7.66 2.2l1.84-1.74c-0.39 0.12-0.79 0.22-1.18 0.27C37.42 27.09 35.2 27.23 33.74 26.15M45.34 14.72c-4.45 0.03-6.01-3.72-6.98-5.43-0.98-1.71-1.86-3.75-3.54-6.25-0.05-0.08-0.11-0.16-0.17-0.24-0.02-0.02-0.04-0.05-0.06-0.07-0.04-0.05-0.08-0.1-0.12-0.15-0.02-0.03-0.05-0.05-0.07-0.08-0.04-0.04-0.08-0.08-0.11-0.13-0.03-0.03-0.05-0.05-0.08-0.08-0.04-0.04-0.08-0.08-0.12-0.12-0.02-0.03-0.05-0.05-0.08-0.08l-0.12-0.11c-0.03-0.02-0.05-0.04-0.08-0.07-0.04-0.04-0.09-0.07-0.13-0.1-0.03-0.02-0.05-0.04-0.08-0.06-0.05-0.04-0.1-0.07-0.15-0.11-0.02-0.01-0.04-0.03-0.06-0.05-0.07-0.04-0.14-0.09-0.21-0.13 0 0-0.01 0-0.01-0.01-0.08-0.05-0.15-0.09-0.23-0.13-0.02-0.01-0.03-0.02-0.05-0.02-0.06-0.03-0.13-0.06-0.19-0.1-0.02-0.01-0.05-0.02-0.07-0.03-0.06-0.03-0.11-0.05-0.17-0.08-0.03-0.01-0.06-0.02-0.08-0.03-0.05-0.02-0.11-0.04-0.16-0.06-0.03-0.01-0.06-0.02-0.09-0.03-0.06-0.02-0.11-0.04-0.17-0.06-0.03-0.01-0.06-0.02-0.09-0.03-0.06-0.02-0.12-0.04-0.18-0.05-0.03-0.01-0.06-0.02-0.08-0.03-0.07-0.02-0.14-0.03-0.2-0.05-0.02 0-0.04-0.01-0.07-0.02-0.09-0.02-0.17-0.04-0.27-0.06 0 0 0 0-0.01 0l-1.16 1.17c1.71 0.37 3.03 0.77 4.5 3.26 1.63 2.75 3.13 5.5 3.8 6.6 0.67 1.1 2.04 3.15 4.14 3.68 2.09 0.53 3.83 0.39 5.88 0.11 1.37-0.18 3.46-0.54 4.93-0.85l1.25-1.18C54.37 13.44 49.79 14.68 45.34 14.72M35.29 18.73c-2.3-2.67-4.27-5.77-5.96-7.7-1.71-1.94-4.17-3.43-7.5-4.07-3.2-0.61-8.74-0.57-10.93-0.35L10.42 7.05 9.71 7.72c2.82-0.14 6.49-0.07 9.09 0.18 2.74 0.26 5.44 0.65 7.87 2.83 2.43 2.18 3.93 4.47 5.9 7.21 1.97 2.75 4.09 4.5 6.57 4.77 1.84 0.2 4.28-0.09 5.84-0.39l0.63-0.59 1.06-1c-1.66 0.44-3.59 0.7-5.18 0.72C39.65 21.46 37.59 21.4 35.29 18.73M34.03 22.1c-2.37-2.56-5.58-7.92-7.46-9.65-2.41-2.2-4.6-3.07-9.36-3.51-3.3-0.3-6.75-0.27-8.56-0.22l-0.51 0.48-1.05 0.99C12.48 9.95 14.9 9.88 19.08 10.52c4.51 0.69 6.43 2.71 8.25 5.19 1.83 2.48 3.42 5.1 5.12 6.99 1.71 1.89 2.62 2.97 6.61 2.94 2.04-0.01 2.82-0.4 2.83-0.4l1.55-1.47c-0.03-0.01-1.23 0.3-2.44 0.41C39.92 24.27 36.39 24.66 34.03 22.1M40.71 18.62c-2.48-0.45-4.62-2.9-6.22-5.55-1.6-2.66-3.96-6.42-7.92-7.9l-1.21 1.24c1.34 0.45 2.49 1.06 3.31 1.84 1.62 1.56 2.7 2.86 4.72 5.73 2.01 2.87 3.75 5.72 7.2 6.02 2.91 0.25 5.92-0.26 7.64-0.73l1.28-1.21 0.11-0.1c-0.41 0.1-0.99 0.23-1.78 0.37C45.55 18.73 43.19 19.07 40.71 18.62"/><path d="M65.88 24.55h0.56 1.37l-1.56-4.25-1.71 4.25H65.88zM65.88 15.73h0.56 2.12l5.62 14.45h-4.28l-1-2.69h-2.47-0.56-2.59l-1.11 2.7h-4.31l6.32-14.45H65.88z"/><path d="M80.51 15.52c0.1 0 0.19 0 0.28 0L80.51 15.52zM80.23 15.52c0.09 0 0.18 0 0.28 0H80.23zM80.51 26.96c2.13 0 3.69-1.62 3.69-3.97 0-2.38-1.57-4-3.68-4-2.15 0.01-3.69 1.62-3.69 4C76.83 25.34 78.37 26.96 80.51 26.96M80.79 30.45c-0.09 0-0.18 0-0.27 0h0.27V30.45zM86.11 17.55c1.49 1.43 2.26 3.27 2.26 5.44 0 2.12-0.77 3.98-2.26 5.38-1.4 1.33-3.18 2.03-5.31 2.08l-0.27 0c-2.26 0-4.11-0.7-5.56-2.08-1.49-1.4-2.26-3.27-2.26-5.37 0-2.17 0.78-4.01 2.26-5.44 1.4-1.31 3.15-1.97 5.27-2.03l0.28 0h0.28C82.92 15.58 84.71 16.24 86.11 17.55"/><path d="M97.35 15.73h0.12 0.07H97.35zM97.35 21.49c0.96-0.03 1.79-0.11 1.79-1.29 0-1.06-0.74-1.26-1.59-1.31H96.12v2.6H97.35zM103.28 20.16c0 3.44-2.55 4.4-5.37 4.58l-0.28 0.02h-0.06l-0.22 0.01c-0.05 0-0.11 0-0.16 0H96.12v5.41h-4.03V15.73h5.26 0.19 0.37C100.72 15.86 103.28 16.7 103.28 20.16"/><path d="M108.08 24.55h0.56 1.37l-1.56-4.25-1.71 4.25H108.08zM108.08 15.73h0.56 2.12l5.62 14.45h-4.28l-1-2.69h-2.46-0.56-2.6l-1.11 2.7h-4.31l6.31-14.45H108.08z"/><path d="M146.88 15.52c0.09 0 0.18 0 0.27 0H146.88zM147.15 26.96c2.13 0 3.69-1.62 3.69-3.97 0-2.37-1.56-3.99-3.68-4-2.14 0-3.69 1.62-3.69 4C143.47 25.34 145.02 26.96 147.15 26.96M146.88 30.45h0.27c-0.09 0-0.18 0-0.27 0V30.45zM147.44 30.45c-0.09 0-0.19 0-0.28 0h0.28V30.45zM152.73 17.55c1.47 1.43 2.28 3.27 2.28 5.44 0 2.13-0.8 3.98-2.28 5.38-1.38 1.33-3.16 2.02-5.28 2.08l-0.28 0h-0.28c-2.14-0.06-3.89-0.75-5.29-2.08-1.49-1.4-2.27-3.27-2.27-5.37 0-2.17 0.79-4.01 2.28-5.44 1.41-1.31 3.16-1.97 5.29-2.03l0.27 0C149.41 15.52 151.28 16.18 152.73 17.55"/><path d="M52.71 27.18c1.35 0 1.8-0.4 1.8-0.95 0-0.82-1.07-1.05-1.66-1.25-3.5-1.23-5.4-2.44-5.4-5.18 0-2.54 2.26-4.28 5.53-4.28 1.79 0 3.4 0.47 5.01 1.24v3.48c-1.44-0.73-3.16-1.55-4.83-1.55-1.35 0-1.74 0.4-1.74 0.84 0 0.36 0.38 0.81 1.68 1.27 1.18 0.47 2.4 0.87 3.5 1.52 1.32 0.82 1.97 2.1 1.97 3.71 0 2.75-2.18 4.43-5.77 4.43-1.89 0-3.49-0.51-5.1-1.49v-3.74C49.2 26.14 50.85 27.18 52.71 27.18"/><path d="M122.08 30.45c-4.25 0-6.84-2.4-6.84-6.48v-8.24h4.04v8.09c0 2.1 1 3.16 2.82 3.16 1.8 0 2.78-1.05 2.78-3.16v-8.09h4.06v8.24C128.94 28.05 126.34 30.45 122.08 30.45"/><polygon points="133.93 15.73 133.93 26.96 139.91 26.96 139.91 30.18 129.89 30.18 129.89 15.73 "/><path d="M66.25 14.84l-0.56-0.24c-0.26-0.13-0.54-0.2-0.72-0.22-0.53-0.06-0.84 0.18-1.09 0.68l-1.17-0.14c0.53-1.66 1.37-2.4 2.57-2.26 0.23 0.03 0.56 0.13 0.92 0.28l0.27 0.11 0.71 0.29c0.2 0.07 0.38 0.13 0.6 0.15 0.46 0.06 0.89-0.22 1.09-0.77l1.17 0.14c-0.55 1.63-1.31 2.5-2.63 2.34-0.24-0.03-0.52-0.13-0.78-0.21L66.25 14.84z"/><path d="M51.3 12.11c-1.04 0-1.91-0.33-2.54-0.92-0.65-0.62-1.01-1.48-1.01-2.46 0-2 1.44-3.38 3.71-3.38 0.83 0 1.62 0.2 2.43 0.59v1.44c-0.87-0.44-1.65-0.66-2.34-0.66-1.32 0-2.12 0.77-2.12 2.02 0 1.22 0.77 2.01 1.98 2.01 0.32 0 0.64-0.07 0.96-0.2V9.72H51.47V8.49h2.56v2.74C53.23 11.83 52.35 12.11 51.3 12.11"/><path d="M55.87 6.29c0.66-0.62 1.49-0.93 2.53-0.93 1.03 0 1.88 0.3 2.54 0.93 0.67 0.64 1.02 1.47 1.02 2.45 0 0.98-0.35 1.81-1.02 2.44-0.66 0.62-1.5 0.94-2.53 0.94-1.03 0-1.87-0.31-2.52-0.94-0.67-0.63-1.02-1.47-1.02-2.44C54.84 7.76 55.2 6.93 55.87 6.29M58.39 10.73c1.08 0 1.87-0.82 1.87-2 0-1.17-0.79-2.01-1.87-2.01-1.08 0-1.87 0.83-1.87 2.01C56.53 9.91 57.31 10.73 58.39 10.73"/><polygon points="61.91 5.46 63.66 5.46 65.28 9.26 67 5.46 68.77 5.46 65.58 12.05 64.88 12.05 "/><polygon points="69.22 5.46 73.59 5.46 73.59 6.67 70.85 6.67 70.85 8 73.46 8 73.46 9.21 70.85 9.21 70.85 10.77 73.67 10.77 73.67 12 69.22 12 "/><path d="M74.74 5.46h2.41c1.75 0 2.6 0.58 2.6 1.89 0 0.72-0.35 1.22-1.14 1.58 0.33 0.12 0.59 0.4 0.77 0.82l1.04 2.24h-1.85l-0.83-1.88c-0.26-0.58-0.55-0.78-1.19-0.78-0.07 0-0.12 0.01-0.19 0.01v2.66h-1.64V5.46zM78.06 7.38c0-0.48-0.3-0.76-0.9-0.76h-0.79V8.14h0.79C77.78 8.14 78.06 7.89 78.06 7.38"/><polygon points="82.57 12 80.95 12 80.95 5.46 82.39 5.46 85.89 9.36 85.89 5.46 87.51 5.46 87.51 12 86.22 12 82.57 7.89 "/><path d="M89.48 6.29c0.66-0.62 1.49-0.93 2.53-0.93 1.03 0 1.88 0.3 2.54 0.93 0.67 0.64 1.02 1.47 1.02 2.45 0 0.98-0.35 1.81-1.02 2.44-0.66 0.62-1.5 0.94-2.54 0.94-1.03 0-1.87-0.31-2.52-0.94-0.67-0.63-1.02-1.47-1.02-2.44C88.46 7.76 88.82 6.93 89.48 6.29M92.01 10.73c1.08 0 1.87-0.82 1.87-2 0-1.17-0.78-2.01-1.87-2.01-1.08 0-1.87 0.83-1.87 2.01C90.14 9.91 90.93 10.73 92.01 10.73"/><path d="M99.13 5.46h2.45c1.04 0 1.89 0.07 2.7 0.68 0.83 0.63 1.27 1.52 1.27 2.58 0 1.17-0.54 2.14-1.53 2.77-0.74 0.47-1.5 0.5-2.44 0.5h-2.45V5.46zM100.77 10.68h1.21c1.12 0 1.89-0.81 1.89-1.95 0-1.14-0.76-1.94-1.88-1.94h-1.21V10.68z"/><path d="M107.22 6.29c0.66-0.62 1.49-0.93 2.53-0.93 1.03 0 1.88 0.3 2.54 0.93 0.67 0.64 1.02 1.47 1.02 2.45 0 0.98-0.35 1.81-1.02 2.44-0.66 0.62-1.5 0.94-2.53 0.94-1.03 0-1.87-0.31-2.52-0.94-0.67-0.63-1.02-1.47-1.02-2.44C106.19 7.76 106.55 6.93 107.22 6.29M109.74 10.73c1.08 0 1.87-0.82 1.87-2 0-1.17-0.78-2.01-1.87-2.01-1.08 0-1.87 0.83-1.87 2.01C107.88 9.91 108.66 10.73 109.74 10.73"/><polygon points="116.87 5.46 121.24 5.46 121.24 6.67 118.5 6.67 118.5 8 121.11 8 121.11 9.21 118.5 9.21 118.5 10.77 121.32 10.77 121.32 12 116.87 12 "/><path d="M122.25 10.03c0.82 0.51 1.49 0.82 2.23 0.82 0.64 0 0.98-0.2 0.98-0.58 0-0.39-0.3-0.52-0.87-0.72-1.65-0.57-2.45-1.12-2.45-2.3 0-1.09 0.97-1.88 2.47-1.88 0.72 0 1.48 0.17 2.22 0.53v1.34c-0.83-0.42-1.53-0.65-2.13-0.65-0.63 0-0.96 0.19-0.96 0.53 0 0.27 0.29 0.5 0.88 0.72 0.59 0.22 1.14 0.4 1.63 0.7 0.57 0.36 0.86 0.91 0.86 1.64 0 1.19-0.94 1.94-2.58 1.94-0.81 0-1.57-0.21-2.27-0.63V10.03z"/><polygon points="129.65 6.68 127.49 6.68 127.49 5.46 133.54 5.46 133.54 6.68 131.38 6.68 131.38 11.99 129.65 11.99 "/><path d="M135.73 5.47h1.88l2.54 6.53h-1.73l-0.47-1.27h-2.81l-0.53 1.27h-1.74L135.73 5.47zM137.55 9.6l-0.92-2.49-1.01 2.49H137.55z"/><path d="M140.61 5.46h2.45c1.04 0 1.88 0.07 2.7 0.68 0.83 0.63 1.27 1.52 1.27 2.58 0 1.17-0.53 2.14-1.53 2.77-0.74 0.47-1.5 0.5-2.44 0.5h-2.45V5.46zM142.25 10.68h1.21c1.12 0 1.89-0.81 1.89-1.95 0-1.14-0.76-1.94-1.88-1.94h-1.21V10.68z"/><path d="M148.69 6.29c0.66-0.62 1.5-0.93 2.53-0.93 1.03 0 1.88 0.3 2.54 0.93 0.67 0.64 1.02 1.47 1.02 2.45 0 0.98-0.35 1.81-1.02 2.44-0.66 0.62-1.5 0.94-2.54 0.94-1.03 0-1.87-0.31-2.53-0.94-0.67-0.63-1.02-1.47-1.02-2.44C147.67 7.76 148.02 6.93 148.69 6.29M151.22 10.73c1.08 0 1.86-0.82 1.86-2 0-1.17-0.78-2.01-1.86-2.01-1.08 0-1.87 0.83-1.87 2.01C149.35 9.91 150.14 10.73 151.22 10.73"/></g></svg>
